Coordinates
version=1
nRows=16
nColumns=40
inDegrees=yes

Units are S.I. units (second, meters, Newtons, ...)
Angles are in degrees.

endheader
time	pelvis_tilt	pelvis_list	pelvis_rotation	pelvis_tx	pelvis_ty	pelvis_tz	hip_flexion_r	hip_adduction_r	hip_rotation_r	knee_angle_r	knee_angle_r_beta	ankle_angle_r	subtalar_angle_r	mtp_angle_r	hip_flexion_l	hip_adduction_l	hip_rotation_l	knee_angle_l	knee_angle_l_beta	ankle_angle_l	subtalar_angle_l	mtp_angle_l	lumbar_extension	lumbar_bending	lumbar_rotation	arm_flex_r	arm_add_r	arm_rot_r	elbow_flex_r	pro_sup_r	wrist_flex_r	wrist_dev_r	arm_flex_l	arm_add_l	arm_rot_l	elbow_flex_l	pro_sup_l	wrist_flex_l	wrist_dev_l
      5.85000000	     -1.97437008	     -5.79614469	     -2.51374849	      0.85806893	      0.92317781	      0.48107628	     19.32878898	      4.36335615	    -14.25122880	     20.19065332	     20.19065332	      6.38488597	      1.70041118	     -3.82431858	      6.30868643	    -12.05798668	     -7.09148738	     46.34013088	     46.34013088	     14.54302746	    -17.61961058	      1.51648517	     -8.21397360	      8.13281776	      2.62072391	      0.61560632	    -12.29157708	     -7.43997868	     29.52085470	     46.47929162	      0.00000000	      0.00000000	      9.79907390	    -12.61877842	      1.03136431	     95.90427109	     47.86697007	      0.00000000	      0.00000000
      5.86314286	     -1.91620895	     -5.90583232	     -2.09107203	      0.85795968	      0.92501545	      0.48280833	     18.20272619	      4.49996937	    -15.08749961	     19.29334108	     19.29334108	      6.70812055	      2.86449752	     -3.95499124	      8.42922293	    -12.66713584	     -6.76076157	     50.00514115	     50.00514115	     14.96666054	    -17.98157931	      6.43236945	     -8.27725995	      8.49974959	      2.86655857	      1.93693711	    -12.35660901	     -6.59410710	     31.07712769	     46.34196798	      0.00000000	      0.00000000	      9.31706578	    -12.36082621	      2.04260959	     93.88999843	     47.83098689	      0.00000000	      0.00000000
      5.87628571	     -1.88623602	     -6.08218711	     -1.68515142	      0.85770283	      0.92666752	      0.48460992	     17.10738772	      4.79168668	    -15.72754835	     18.35235451	     18.35235451	      6.96303051	      3.65010339	     -3.94588657	     10.40647290	    -13.48851123	     -6.81437454	     52.93424225	     52.93424225	     14.04573235	    -18.57800768	      7.08285821	     -8.32414105	      8.89242033	      2.93671583	      3.69912209	    -12.32373037	     -6.49468430	     31.89556623	     46.31321752	      0.00000000	      0.00000000	      8.43930815	    -12.02053330	      2.60527123	     92.61957300	     47.77300306	      0.00000000	      0.00000000
      5.88942857	     -1.85797264	     -6.20181289	     -1.27125494	      0.85736426	      0.92835886	      0.48624243	     15.89802403	      5.02122456	    -16.56196018	     17.17725234	     17.17725234	      7.13663232	      4.97790083	     -3.99396137	     12.38012123	    -14.21052554	     -6.89177230	     55.46978195	     55.46978195	     13.90459477	    -18.85351823	      8.97127541	     -8.29518189	      9.25532966	      2.97248774	      5.41007609	    -12.30380573	     -6.23271581	     32.85263455	     46.26594318	      0.00000000	      0.00000000	      7.70059333	    -11.82290996	      3.11372288	     90.31675623	     47.70341576	      0.00000000	      0.00000000
      5.90257143	     -1.78393946	     -6.06151560	     -0.99534933	      0.85673012	      0.92999452	      0.48762087	     14.88125793	      4.93800442	    -17.21311787	     16.43156898	     16.43156898	      7.29096511	      6.12170009	     -4.32138218	     14.36186694	    -14.45485421	     -6.92691909	     57.78512131	     57.78512131	     15.75092385	    -18.93413624	     15.73202815	     -8.41758043	      9.32805044	      3.85669731	      6.40516228	    -12.84324508	     -4.99074276	     34.85158949	     46.09279955	      0.00000000	      0.00000000	      7.74330317	    -11.17484117	      4.23866690	     87.20222599	     47.62624808	      0.00000000	      0.00000000
      5.91571429	     -1.77969633	     -6.11173384	     -0.64565786	      0.85602663	      0.93128251	      0.48908110	     13.92821641	      5.14463226	    -17.63822774	     15.60438739	     15.60438739	      7.45785517	      6.71322814	     -4.26938144	     16.18064778	    -15.07874566	     -7.24875201	     59.19633746	     59.19633746	     15.54942582	    -19.10020306	     15.96541606	     -8.46079356	      9.57145333	      3.93026798	      8.18852867	    -12.92639356	     -4.93817238	     35.79675915	     46.06286833	      0.00000000	      0.00000000	      6.64893952	    -10.89726297	      4.57248157	     85.64215224	     47.57420723	      0.00000000	      0.00000000
      5.92885714	     -1.69081067	     -5.98313939	     -0.37171844	      0.85523341	      0.93268755	      0.49035464	     12.89470774	      5.13629347	    -18.12306023	     14.80407826	     14.80407826	      7.60843516	      7.66070514	     -4.38996685	     17.77528861	    -15.36456471	     -7.58565175	     60.03584922	     60.03584922	     15.99974694	    -19.16968502	     17.56421695	     -8.57029136	      9.62380734	      4.40261631	      9.61888513	    -13.29148417	     -4.38849260	     37.31087038	     45.97240688	      0.00000000	      0.00000000	      6.29024220	    -10.11045544	      4.41434927	     82.25439258	     47.54036641	      0.00000000	      0.00000000
      5.94200000	     -1.65861820	     -5.85309365	     -0.08626793	      0.85429972	      0.93382111	      0.49158803	     12.01244721	      5.17098826	    -18.29279641	     14.12190259	     14.12190259	      7.79321442	      7.97595054	     -4.34515370	     19.30330697	    -15.56099318	     -7.88181546	     60.24426414	     60.24426414	     16.08716230	    -19.22138711	     17.81216375	     -8.66486369	      9.64654707	      4.34081135	     11.47933764	    -13.34047979	     -4.30456560	     38.61717490	     45.92649446	      0.00000000	      0.00000000	      5.18053989	    -10.06375113	      4.63351664	     80.32831198	     47.48911766	      0.00000000	      0.00000000
      5.95514286	     -1.61227105	     -5.66478371	      0.18579610	      0.85324995	      0.93483656	      0.49262309	     11.17362011	      5.11710446	    -18.48238340	     13.54224056	     13.54224056	      7.98362386	      8.30391452	     -4.37141441	     20.67535081	    -15.57002257	     -8.15176308	     59.87819263	     59.87819263	     16.25102813	    -19.21709166	     18.04334991	     -8.79119622	      9.62790075	      4.41772434	     13.16917543	    -13.50745784	     -4.12188694	     40.13215694	     45.86562424	      0.00000000	      0.00000000	      4.32408360	     -9.72040424	      4.48423464	     77.64873362	     47.45088509	      0.00000000	      0.00000000
      5.96828571	     -1.58707119	     -5.46335923	      0.43824076	      0.85209215	      0.93566403	      0.49357747	     10.44140609	      5.03631601	    -18.59080087	     13.10567319	     13.10567319	      8.22671180	      8.51511703	     -4.45489974	     21.91882915	    -15.45404985	     -8.36938883	     58.94299819	     58.94299819	     16.31362629	    -19.17409300	     18.08034625	     -8.88468659	      9.58479842	      4.54132770	     14.72799841	    -13.72467937	     -3.90089504	     41.90073367	     45.79270852	      0.00000000	      0.00000000	      3.49843747	     -9.27893033	      4.18796886	     74.69724822	     47.41690739	      0.00000000	      0.00000000
      5.98142857	     -1.59916333	     -5.21871796	      0.67389615	      0.85087331	      0.93632655	      0.49439697	      9.79146324	      4.90066939	    -18.64734538	     12.73878360	     12.73878360	      8.48377538	      8.62731708	     -4.60619142	     23.00591363	    -15.18175394	     -8.56658956	     57.42617913	     57.42617913	     16.19278110	    -19.11207371	     17.75302021	     -8.93762827	      9.50674941	      4.92798755	     15.81494837	    -14.24250303	     -3.47075872	     44.46559222	     45.67577778	      0.00000000	      0.00000000	      3.02930110	     -8.52928915	      3.57381112	     71.02375915	     47.39272884	      0.00000000	      0.00000000
      5.99457143	     -1.58900201	     -4.92905622	      0.93477709	      0.84953307	      0.93685753	      0.49511526	      9.17327858	      4.71010343	    -18.62550393	     12.45995897	     12.45995897	      8.78670407	      8.55476420	     -4.66164533	     23.92384653	    -14.74185339	     -8.66058840	     55.44588561	     55.44588561	     16.11146602	    -19.02072454	     17.68988962	     -9.06239760	      9.32562488	      4.66706296	     17.63502989	    -14.12942225	     -3.48051244	     46.08866026	     45.62541133	      0.00000000	      0.00000000	      1.75764545	     -8.66507273	      3.63612340	     69.00952315	     47.34287746	      0.00000000	      0.00000000
      6.00771429	     -1.59312542	     -4.73806316	      1.22969314	      0.84813916	      0.93720744	      0.49576799	      8.57695581	      4.62155366	    -18.68940219	     12.18293757	     12.18293757	      9.08225221	      8.50957768	     -4.76084570	     24.73047753	    -14.33006759	     -8.64107680	     53.05577738	     53.05577738	     15.87070626	    -18.91578201	     17.46388187	     -9.14924413	      9.28400309	      4.33280071	     19.30355622	    -14.04783859	     -3.38980914	     48.21822778	     45.55104256	      0.00000000	      0.00000000	      0.80910720	     -8.60284368	      3.32315466	     66.03495970	     47.30624800	      0.00000000	      0.00000000
      6.02085714	     -1.62911138	     -4.59149482	      1.51120111	      0.84665530	      0.93732364	      0.49630080	      8.04506973	      4.56615840	    -18.77003450	     11.94622662	     11.94622662	      9.36901275	      8.47361403	     -4.90309695	     25.43937738	    -13.87789530	     -8.50776549	     50.34417639	     50.34417639	     15.52748726	    -18.78581378	     16.95709353	     -9.22298218	      9.29551904	      4.23352692	     20.66990746	    -14.22210744	     -3.19628439	     50.97168368	     45.44916839	      0.00000000	      0.00000000	      0.17406958	     -8.23951403	      2.68284517	     62.31876858	     47.28330723	      0.00000000	      0.00000000
      6.03400000	     -1.74456867	     -4.49770109	      1.76328260	      0.84511092	      0.93726484	      0.49681652	      7.62297039	      4.55769854	    -18.86229228	     11.74831502	     11.74831502	      9.61769624	      8.46017446	     -5.10294446	     26.03822426	    -13.46752605	     -8.42953870	     47.21985078	     47.21985078	     14.73089009	    -18.62714794	     15.54326878	     -9.22011958	      9.35576013	      5.07630227	     20.72745226	    -15.31837065	     -2.85892795	     55.61592421	     45.27502312	      0.00000000	      0.00000000	      0.62441678	     -7.19422469	      1.43552077	     57.16885670	     47.27515271	      0.00000000	      0.00000000
      6.04714286	     -1.82315656	     -4.33454266	      2.04012409	      0.84350825	      0.93721085	      0.49728194	      7.16471237	      4.48329733	    -18.88480767	     11.55421517	     11.55421517	      9.93564920	      8.32527729	     -5.17767062	     26.51809510	    -12.87838319	     -8.18301380	     43.95874635	     43.95874635	     14.41585997	    -18.35509512	     15.70403519	     -9.25970126	      9.25205148	      4.57572298	     22.44597428	    -14.97356650	     -2.97867104	     57.64723008	     45.21879548	      0.00000000	      0.00000000	     -0.61091800	     -7.51473086	      1.46826844	     55.26172805	     47.22614339	      0.00000000	      0.00000000
